<?xml version="1.0" encoding="UTF-8"?>
<!DOCTYPE svg PUBLIC "-//W3C//DTD SVG 1.1//EN" "http://www.w3.org/Graphics/SVG/1.1/DTD/svg11.dtd">
<!-- Creator: CorelDRAW 2019 (64-Bit) -->
<svg xmlns="http://www.w3.org/2000/svg" xml:space="preserve" width="215.9mm" height="279.4mm" version="1.1" style="shape-rendering:geometricPrecision; text-rendering:geometricPrecision; image-rendering:optimizeQuality; fill-rule:evenodd; clip-rule:evenodd"
viewBox="0 0 21590 27940"
 xmlns:xlink="http://www.w3.org/1999/xlink"
 xmlns:xodm="http://www.corel.com/coreldraw/odm/2003">
 <defs>
  <style type="text/css">
   <![CDATA[
    .fil3 {fill:#EDF1F1;fill-rule:nonzero}
    .fil4 {fill:#BEC3C7;fill-rule:nonzero}
    .fil0 {fill:#99A8A8;fill-rule:nonzero}
    .fil1 {fill:black;fill-rule:nonzero}
    .fil2 {fill:#C40007;fill-rule:nonzero}
   ]]>
  </style>
 </defs>
 <g id="Layer_x0020_1">
  <metadata id="CorelCorpID_0Corel-Layer"/>
  <g id="_1953418040976">
   <polygon class="fil0" points="-20880.68,-12525.21 -20880.68,-23077.65 -23293.89,-21558.73 -25673.06,-23077.65 -25673.06,-12525.21 "/>
   <polygon class="fil1" points="-20880.68,-12525.21 -20880.68,-22735.52 -23293.89,-21154.01 -25673.06,-22735.52 -25673.06,-12525.21 "/>
  </g>
  <path class="fil2" d="M-28760.67 -10203.28l0 15254.6c0,1304.18 1027.51,2331.69 2331.66,2331.69l16361.18 0c1304.14,0 2331.65,-1027.51 2331.65,-2331.69l0 -15294.11 -21024.49 0 0 39.51z"/>
  <path class="fil3" d="M-28760.67 -11388.86l0 15254.65c0,1264.6 1027.51,2331.64 2331.66,2331.64l16361.18 0c1304.14,0 2331.65,-1067.04 2331.65,-2331.64l0 -15254.65 -21024.49 0z"/>
  <path class="fil4" d="M-28760.67 -12534.93l0 15215.07c0,1264.63 1027.51,2331.7 2331.66,2331.7l16361.18 0c1304.14,0 2331.65,-1067.07 2331.65,-2331.7l0 -15254.57 -21024.49 0 0 39.5z"/>
  <path class="fil3" d="M-28760.67 -13720.5l0 15215.07c0,1264.67 1027.51,2331.7 2331.66,2331.7l16361.18 0c1304.14,0 2331.65,-1067.03 2331.65,-2331.7l0 -15215.07 -21024.49 0z"/>
  <path class="fil2" d="M-26429.01 -18383.84c-1304.15,0 -2331.66,1027.52 -2331.66,2331.69l0 21103.47c0,1304.18 1027.51,2331.69 2331.66,2331.69l2331.66 0 0 -1185.58 -1738.86 0c-948.47,0 -1738.87,-790.42 -1738.87,-1738.87 0,-948.47 790.4,-1738.9 1738.87,-1738.9l15768.38 0c1304.14,0 2331.65,-1027.45 2331.65,-2331.64l0 -16479.73c0,-1304.13 -1027.51,-2331.65 -2331.65,-2331.65l-16361.18 0 0 39.52z"/>
 </g>
</svg>
